#tb 0: 1/25
0,          1,          1,        1,   152064, 0x7f5f6551
0,          5,          5,        1,   152064, 0x287da8e6
0,          7,          7,        1,   152064, 0xe9028bac
0,         11,         11,        1,   152064, 0xb247fcd5
0,         13,         13,        1,   152064, 0xb1d6a223
0,         17,         17,        1,   152064, 0xa3e038c8
0,         19,         19,        1,   152064, 0x1a0ddbff
0,         23,         23,        1,   152064, 0x813468ef
0,         25,         25,        1,   152064, 0x62719936
0,         29,         29,        1,   152064, 0x2db5650e
0,         31,         31,        1,   152064, 0x669fc51e
0,         35,         35,        1,   152064, 0x0db194fb
0,         37,         37,        1,   152064, 0xac2101f8
0,         41,         41,        1,   152064, 0xf0c79e08
0,         43,         43,        1,   152064, 0x5ad420ec
0,         47,         47,        1,   152064, 0x60afc5c2
0,         49,         49,        1,   152064, 0x5b29d8ea
